<svg xmlns="http://www.w3.org/2000/svg" width="256" height="256" viewBox="0 0 256 256"><rect width="256" height="256" rx="56" fill="#1B1326"></rect><g transform="translate(128 128) scale(0.8) translate(-128 -128)"><path d="M 128 84 L 172 112 L 84 112 Z" fill="#fff"></path><rect x="88" y="116" width="80" height="9" rx="2.5" fill="#fff"></rect><rect x="99" y="130" width="13" height="31" rx="2.5" fill="#fff"></rect><rect x="121.5" y="130" width="13" height="31" rx="2.5" fill="#fff"></rect><rect x="144" y="130" width="13" height="31" rx="2.5" fill="#fff"></rect><rect x="84" y="165" width="88" height="11" rx="3" fill="#fff"></rect></g><path d="M 51.9 100.3 A 81 81 0 0 1 204.1 100.3" fill="none" stroke="#fff" stroke-width="17" stroke-linecap="round"></path><path d="M 204.1 155.7 A 81 81 0 0 1 51.9 155.7" fill="none" stroke="#A78BFA" stroke-width="17" stroke-linecap="round"></path><path d="M 211.6 121 L 221 94.1 L 187.2 106.5 Z" fill="#fff"></path><path d="M 44.4 135 L 35 161.9 L 68.8 149.5 Z" fill="#A78BFA"></path></svg>